<svg xmlns="http://www.w3.org/2000/svg" xmlns:xlink="http://www.w3.org/1999/xlink" version="1.1" x="0px" y="0px" viewBox="0 0 100 125" style="enable-background:new 0 0 100 100;" xml:space="preserve"><g><path d="M83.7,46H88c1.1,0,2-0.9,2-2c0-1.11-0.9-2-2-2h-4.3c-0.86-2.89-3.54-5-6.7-5c-3.17,0-5.85,2.11-6.71,5H66   c-1.11,0-2,0.89-2,2c0,1.1,0.89,2,2,2h4.29c0.86,2.89,3.54,5,6.71,5C80.16,51,82.84,48.89,83.7,46z M77,47c-1.66,0-3-1.35-3-3   c0-1.66,1.34-3,3-3c1.65,0,3,1.34,3,3C80,45.65,78.65,47,77,47z"/><path d="M25,58h24c1.1,0,2-0.9,2-2V37c0-1.11-0.9-2-2-2H25c-1.11,0-2,0.89-2,2v19C23,57.1,23.89,58,25,58z M27,39h20v15H27V39z"/><path d="M25,68h24c1.1,0,2-0.9,2-2c0-1.11-0.9-2-2-2H25c-1.11,0-2,0.89-2,2C23,67.1,23.89,68,25,68z"/><path d="M89,7H65c-3.31,0-6,2.69-6,6v4H18c-3.86,0-7,3.14-7,7c0,2.78,1.64,5.19,4,6.31v29.37C14.09,59.25,13.07,59,12,59   c-3.86,0-7,3.14-7,7v20c0,3.86,3.14,7,7,7s7-3.14,7-7v-8h51v8c0,3.86,3.14,7,7,7s7-3.14,7-7v-8c2.2,0,4-1.8,4-4V57   c0-3.31-2.7-6-6-6h-5h-5c-3.31,0-6,2.69-6,6v7h-7V31h6c1.06,0,2.09-0.29,3-0.82c1.81,1.06,4.19,1.06,6,0c1.81,1.06,4.19,1.06,6,0   c1.81,1.06,4.19,1.06,6,0c0.9,0.53,1.93,0.82,3,0.82c3.3,0,6-2.69,6-6V13C95,9.69,92.3,7,89,7z M15,86c0,1.65-1.35,3-3,3   c-1.66,0-3-1.35-3-3v-8h6V86z M15,74H9v-8c0-1.66,1.34-3,3-3c1.65,0,3,1.34,3,3V74z M80,86c0,1.65-1.35,3-3,3c-1.66,0-3-1.35-3-3   v-8h6V86z M70,57c0-1.1,0.89-2,2-2h10c1.1,0,2,0.9,2,2v17H70V57z M55,74H19V31h36V74z M66,68v6h-7v-6H66z M18,27   c-1.66,0-3-1.35-3-3c0-1.66,1.34-3,3-3h41v4c0,0.7,0.12,1.37,0.35,2H18z M91,25c0,1.1-0.9,2-2,2c-0.77,0-1.27-0.44-1.5-0.7   c-0.38-0.43-0.93-0.68-1.5-0.68c-0.58,0-1.13,0.25-1.51,0.68C84.26,26.56,83.77,27,83,27s-1.27-0.44-1.5-0.7   c-0.76-0.87-2.25-0.87-3.01,0C78.26,26.56,77.77,27,77,27s-1.27-0.44-1.5-0.7c-0.76-0.87-2.25-0.87-3.01,0   C72.26,26.56,71.77,27,71,27s-1.27-0.44-1.5-0.7c-0.76-0.87-2.25-0.87-3.01,0C66.26,26.56,65.77,27,65,27c-1.11,0-2-0.9-2-2v-4h28   V25z M91,17H63v-4c0-1.1,0.89-2,2-2h24c1.1,0,2,0.9,2,2V17z"/></g></svg>